<?xml version="1.0" encoding="utf-8"?>
<!-- Generator: Adobe Illustrator 23.1.1, SVG Export Plug-In . SVG Version: 6.00 Build 0)  -->
<svg version="1.1" id="レイヤー_1" xmlns="http://www.w3.org/2000/svg" xmlns:xlink="http://www.w3.org/1999/xlink" x="0px"
	 y="0px" viewBox="0 0 216 216" style="enable-background:new 0 0 216 216;" xml:space="preserve">
<style type="text/css">
	.st0{fill:#E4007F;}
</style>
<g transform="translate(0.000000,216.000000) scale(0.100000,-0.100000)">
	<path class="st0" d="M948,1880c-320-58-567-285-654-600c-25-91-25-309,0-400c80-289,297-506,586-586c91-25,309-25,400,0
		c289,80,506,297,586,586c25,90,25,309,0,400c-21,80-95,233-133,279l-29,34l-24-33c-37-52-39-129-6-204c60-135,76-303,41-435
		c-60-231-245-417-475-476c-85-22-235-22-319,0c-231,60-416,245-476,476c-22,84-22,234,0,319c58,225,250,417,475,475
		c85,22,235,22,320,0c74-19,161-60,226-107c55-39,66-31,72,50c4,52,1,61-24,92c-32,37-135,89-229,114C1215,1883,1016,1893,948,1880z
		"/>
</g>
</svg>
